<?xml version="1.0" encoding="UTF-8" standalone="no"?><!-- Generator: Gravit.io --><svg xmlns="http://www.w3.org/2000/svg" xmlns:xlink="http://www.w3.org/1999/xlink" style="isolation:isolate" viewBox="668.472 410.5 533.055 296" width="533.055pt" height="296pt"><defs><clipPath id="_clipPath_CmCXr02mnm6nfNme6G9JyN3XGyOpGIkK"><rect x="668.472" y="410.5" width="533.055" height="296"/></clipPath></defs><g clip-path="url(#_clipPath_CmCXr02mnm6nfNme6G9JyN3XGyOpGIkK)"><path d=" M 935 469.901 C 907.997 433.848 864.94 410.5 816.472 410.5 C 734.789 410.5 668.472 476.817 668.472 558.5 L 668.472 558.5 C 668.472 640.183 734.789 706.5 816.472 706.5 C 864.94 706.5 907.997 683.152 935 647.099 L 894.956 617.166 C 892.151 620.912 889.077 624.46 885.752 627.78 C 876.812 636.73 866.222 643.87 854.572 648.81 C 842.522 653.9 829.562 656.52 816.472 656.5 C 803.382 656.52 790.422 653.9 778.372 648.81 C 766.722 643.87 756.132 636.73 747.192 627.78 C 738.242 618.84 731.102 608.25 726.162 596.6 C 721.072 584.55 718.452 571.59 718.472 558.5 L 718.472 558.5 C 718.452 545.4 721.072 532.43 726.172 520.37 C 731.102 508.75 738.242 498.16 747.192 489.22 C 756.132 480.27 766.722 473.13 778.372 468.19 C 790.422 463.1 803.382 460.48 816.472 460.5 C 829.562 460.48 842.522 463.1 854.572 468.19 C 866.222 473.13 876.812 480.27 885.752 489.22 C 889.077 492.54 892.151 496.088 894.956 499.834 L 935 469.901 Z  M 1201.528 469.901 C 1174.524 433.848 1131.467 410.5 1083 410.5 C 1001.317 410.5 935 476.817 935 558.5 L 935 558.5 C 935 640.183 1001.317 706.5 1083 706.5 C 1131.467 706.5 1174.524 683.152 1201.528 647.099 L 1161.483 617.166 C 1158.679 620.912 1155.604 624.46 1152.28 627.78 C 1143.34 636.73 1132.75 643.87 1121.1 648.81 C 1109.05 653.9 1096.09 656.52 1083 656.5 C 1069.91 656.52 1056.95 653.9 1044.9 648.81 C 1033.25 643.87 1022.66 636.73 1013.72 627.78 C 1004.77 618.84 997.63 608.25 992.69 596.6 C 987.6 584.55 984.98 571.59 985 558.5 L 985 558.5 C 984.98 545.4 987.6 532.43 992.7 520.37 C 997.63 508.75 1004.77 498.16 1013.72 489.22 C 1022.66 480.27 1033.25 473.13 1044.9 468.19 C 1056.95 463.1 1069.91 460.48 1083 460.5 C 1096.09 460.48 1109.05 463.1 1121.1 468.19 C 1132.75 473.13 1143.34 480.27 1152.28 489.22 C 1155.604 492.54 1158.679 496.088 1161.483 499.834 L 1201.528 469.901 Z " fill-rule="evenodd" fill="rgb(23,23,23)"/><clipPath id="_clipPath_G7k2sLPb05cprg5zoccxI2P5Nw4b0CbK"><path d=" M 935 469.901 C 907.997 433.848 864.94 410.5 816.472 410.5 C 734.789 410.5 668.472 476.817 668.472 558.5 L 668.472 558.5 C 668.472 640.183 734.789 706.5 816.472 706.5 C 864.94 706.5 907.997 683.152 935 647.099 L 894.956 617.166 C 892.151 620.912 889.077 624.46 885.752 627.78 C 876.812 636.73 866.222 643.87 854.572 648.81 C 842.522 653.9 829.562 656.52 816.472 656.5 C 803.382 656.52 790.422 653.9 778.372 648.81 C 766.722 643.87 756.132 636.73 747.192 627.78 C 738.242 618.84 731.102 608.25 726.162 596.6 C 721.072 584.55 718.452 571.59 718.472 558.5 L 718.472 558.5 C 718.452 545.4 721.072 532.43 726.172 520.37 C 731.102 508.75 738.242 498.16 747.192 489.22 C 756.132 480.27 766.722 473.13 778.372 468.19 C 790.422 463.1 803.382 460.48 816.472 460.5 C 829.562 460.48 842.522 463.1 854.572 468.19 C 866.222 473.13 876.812 480.27 885.752 489.22 C 889.077 492.54 892.151 496.088 894.956 499.834 L 935 469.901 Z  M 1201.528 469.901 C 1174.524 433.848 1131.467 410.5 1083 410.5 C 1001.317 410.5 935 476.817 935 558.5 L 935 558.5 C 935 640.183 1001.317 706.5 1083 706.5 C 1131.467 706.5 1174.524 683.152 1201.528 647.099 L 1161.483 617.166 C 1158.679 620.912 1155.604 624.46 1152.28 627.78 C 1143.34 636.73 1132.75 643.87 1121.1 648.81 C 1109.05 653.9 1096.09 656.52 1083 656.5 C 1069.91 656.52 1056.95 653.9 1044.9 648.81 C 1033.25 643.87 1022.66 636.73 1013.72 627.78 C 1004.77 618.84 997.63 608.25 992.69 596.6 C 987.6 584.55 984.98 571.59 985 558.5 L 985 558.5 C 984.98 545.4 987.6 532.43 992.7 520.37 C 997.63 508.75 1004.77 498.16 1013.72 489.22 C 1022.66 480.27 1033.25 473.13 1044.9 468.19 C 1056.95 463.1 1069.91 460.48 1083 460.5 C 1096.09 460.48 1109.05 463.1 1121.1 468.19 C 1132.75 473.13 1143.34 480.27 1152.28 489.22 C 1155.604 492.54 1158.679 496.088 1161.483 499.834 L 1201.528 469.901 Z " fill-rule="evenodd" fill="rgb(23,23,23)"/></clipPath><g clip-path="url(#_clipPath_G7k2sLPb05cprg5zoccxI2P5Nw4b0CbK)"><linearGradient id="_lgradient_4" x1="0" y1="0.5" x2="1" y2="0.5" gradientTransform="matrix(622,0,0,304.085,787.025,496.768)" gradientUnits="userSpaceOnUse"><stop offset="2.083333333333333%" stop-opacity="1" style="stop-color:rgb(255,50,50)"/><stop offset="99.16666666666667%" stop-opacity="1" style="stop-color:rgb(238,150,18)"/></linearGradient><rect x="787.025" y="496.768" width="622" height="304.085" transform="matrix(0.796,-0.606,0.606,0.796,-168.65,797.632)" fill="url(#_lgradient_4)"/></g></g></svg>