<?xml version="1.0" encoding="UTF-8" standalone="no"?><!-- Generator: Gravit.io --><svg xmlns="http://www.w3.org/2000/svg" xmlns:xlink="http://www.w3.org/1999/xlink" style="isolation:isolate" viewBox="289.906 514.5 1290.187 296" width="1290.187pt" height="296pt"><defs><clipPath id="_clipPath_ko4oLMRbxIsjordecPJXKmwjfUxvzz1t"><rect x="289.906" y="514.5" width="1290.187" height="296"/></clipPath></defs><g clip-path="url(#_clipPath_ko4oLMRbxIsjordecPJXKmwjfUxvzz1t)"><path d=" M 556.434 573.901 C 529.431 537.848 486.374 514.5 437.906 514.5 C 356.223 514.5 289.906 580.817 289.906 662.5 L 289.906 662.5 C 289.906 744.183 356.223 810.5 437.906 810.5 C 486.374 810.5 529.431 787.152 556.434 751.099 L 516.39 721.166 C 513.585 724.912 510.51 728.46 507.186 731.78 C 498.246 740.73 487.656 747.87 476.006 752.81 C 463.956 757.9 450.996 760.52 437.906 760.5 C 424.816 760.52 411.856 757.9 399.806 752.81 C 388.156 747.87 377.566 740.73 368.626 731.78 C 359.676 722.84 352.536 712.25 347.596 700.6 C 342.506 688.55 339.886 675.59 339.906 662.5 L 339.906 662.5 C 339.886 649.4 342.506 636.43 347.606 624.37 C 352.536 612.75 359.676 602.16 368.626 593.22 C 377.566 584.27 388.156 577.13 399.806 572.19 C 411.856 567.1 424.816 564.48 437.906 564.5 C 450.996 564.48 463.956 567.1 476.006 572.19 C 487.656 577.13 498.246 584.27 507.186 593.22 C 510.51 596.54 513.585 600.088 516.39 603.834 L 556.434 573.901 Z  M 822.962 573.901 C 795.958 537.848 752.901 514.5 704.434 514.5 C 622.75 514.5 556.434 580.817 556.434 662.5 L 556.434 662.5 C 556.434 744.183 622.75 810.5 704.434 810.5 C 752.901 810.5 795.958 787.152 822.962 751.099 L 782.917 721.166 C 780.113 724.912 777.038 728.46 773.714 731.78 C 764.774 740.73 754.184 747.87 742.534 752.81 C 730.484 757.9 717.524 760.52 704.434 760.5 C 691.344 760.52 678.384 757.9 666.334 752.81 C 654.684 747.87 644.094 740.73 635.154 731.78 C 626.204 722.84 619.064 712.25 614.124 700.6 C 609.034 688.55 606.414 675.59 606.434 662.5 L 606.434 662.5 C 606.414 649.4 609.034 636.43 614.134 624.37 C 619.064 612.75 626.204 602.16 635.154 593.22 C 644.094 584.27 654.684 577.13 666.334 572.19 C 678.384 567.1 691.344 564.48 704.434 564.5 C 717.524 564.48 730.484 567.1 742.534 572.19 C 754.184 577.13 764.774 584.27 773.714 593.22 C 777.038 596.54 780.113 600.088 782.917 603.834 L 822.962 573.901 Z  M 873.958 707.701 L 873.958 707.701 Q 860.903 707.701 850.35 702.028 L 850.35 702.028 L 850.35 702.028 Q 839.797 696.355 833.759 686.29 L 833.759 686.29 L 833.759 686.29 Q 827.72 676.225 827.72 663.537 L 827.72 663.537 L 827.72 663.537 Q 827.72 650.849 833.759 640.784 L 833.759 640.784 L 833.759 640.784 Q 839.797 630.719 850.35 625.046 L 850.35 625.046 L 850.35 625.046 Q 860.903 619.373 874.079 619.373 L 874.079 619.373 L 874.079 619.373 Q 885.182 619.373 894.149 623.277 L 894.149 623.277 L 894.149 623.277 Q 903.116 627.181 909.215 634.501 L 909.215 634.501 L 896.527 646.213 L 896.527 646.213 Q 887.866 636.209 875.056 636.209 L 875.056 636.209 L 875.056 636.209 Q 867.126 636.209 860.903 639.686 L 860.903 639.686 L 860.903 639.686 Q 854.682 643.163 851.204 649.385 L 851.204 649.385 L 851.204 649.385 Q 847.728 655.607 847.728 663.537 L 847.728 663.537 L 847.728 663.537 Q 847.728 671.467 851.204 677.689 L 851.204 677.689 L 851.204 677.689 Q 854.682 683.911 860.903 687.388 L 860.903 687.388 L 860.903 687.388 Q 867.126 690.865 875.056 690.865 L 875.056 690.865 L 875.056 690.865 Q 887.866 690.865 896.527 680.739 L 896.527 680.739 L 909.215 692.451 L 909.215 692.451 Q 903.116 699.893 894.088 703.797 L 894.088 703.797 L 894.088 703.797 Q 885.059 707.701 873.958 707.701 L 873.958 707.701 Z  M 950.086 707.213 L 950.086 707.213 Q 939.715 707.213 931.481 702.882 L 931.481 702.882 L 931.481 702.882 Q 923.245 698.551 918.609 690.865 L 918.609 690.865 L 918.609 690.865 Q 913.974 683.179 913.974 673.419 L 913.974 673.419 L 913.974 673.419 Q 913.974 663.659 918.609 655.973 L 918.609 655.973 L 918.609 655.973 Q 923.245 648.287 931.481 643.956 L 931.481 643.956 L 931.481 643.956 Q 939.715 639.625 950.086 639.625 L 950.086 639.625 L 950.086 639.625 Q 960.455 639.625 968.63 643.956 L 968.63 643.956 L 968.63 643.956 Q 976.804 648.287 981.44 655.973 L 981.44 655.973 L 981.44 655.973 Q 986.076 663.659 986.076 673.419 L 986.076 673.419 L 986.076 673.419 Q 986.076 683.179 981.44 690.865 L 981.44 690.865 L 981.44 690.865 Q 976.804 698.551 968.63 702.882 L 968.63 702.882 L 968.63 702.882 Q 960.455 707.213 950.086 707.213 L 950.086 707.213 Z  M 950.086 691.597 L 950.086 691.597 Q 957.406 691.597 962.103 686.656 L 962.103 686.656 L 962.103 686.656 Q 966.799 681.715 966.799 673.419 L 966.799 673.419 L 966.799 673.419 Q 966.799 665.123 962.103 660.182 L 962.103 660.182 L 962.103 660.182 Q 957.406 655.241 950.086 655.241 L 950.086 655.241 L 950.086 655.241 Q 942.766 655.241 938.007 660.182 L 938.007 660.182 L 938.007 660.182 Q 933.25 665.123 933.25 673.419 L 933.25 673.419 L 933.25 673.419 Q 933.25 681.715 938.007 686.656 L 938.007 686.656 L 938.007 686.656 Q 942.766 691.597 950.086 691.597 L 950.086 691.597 Z  M 1082.822 639.625 L 1082.822 639.625 Q 1095.144 639.625 1102.402 646.884 L 1102.402 646.884 L 1102.402 646.884 Q 1109.661 654.143 1109.661 668.661 L 1109.661 668.661 L 1109.661 706.237 L 1090.63 706.237 L 1090.63 671.589 L 1090.63 671.589 Q 1090.63 663.781 1087.397 659.938 L 1087.397 659.938 L 1087.397 659.938 Q 1084.163 656.095 1078.186 656.095 L 1078.186 656.095 L 1078.186 656.095 Q 1071.475 656.095 1067.572 660.426 L 1067.572 660.426 L 1067.572 660.426 Q 1063.668 664.757 1063.668 673.297 L 1063.668 673.297 L 1063.668 706.237 L 1044.636 706.237 L 1044.636 671.589 L 1044.636 671.589 Q 1044.636 656.095 1032.192 656.095 L 1032.192 656.095 L 1032.192 656.095 Q 1025.604 656.095 1021.7 660.426 L 1021.7 660.426 L 1021.7 660.426 Q 1017.796 664.757 1017.796 673.297 L 1017.796 673.297 L 1017.796 706.237 L 998.764 706.237 L 998.764 640.601 L 1016.942 640.601 L 1016.942 648.165 L 1016.942 648.165 Q 1020.601 644.017 1025.909 641.821 L 1025.909 641.821 L 1025.909 641.821 Q 1031.215 639.625 1037.559 639.625 L 1037.559 639.625 L 1037.559 639.625 Q 1044.514 639.625 1050.126 642.37 L 1050.126 642.37 L 1050.126 642.37 Q 1055.738 645.115 1059.153 650.361 L 1059.153 650.361 L 1059.153 650.361 Q 1063.18 645.237 1069.34 642.431 L 1069.34 642.431 L 1069.34 642.431 Q 1075.502 639.625 1082.822 639.625 L 1082.822 639.625 Z  M 1165.537 639.625 L 1165.537 639.625 Q 1174.688 639.625 1182.191 643.834 L 1182.191 643.834 L 1182.191 643.834 Q 1189.693 648.043 1193.964 655.668 L 1193.964 655.668 L 1193.964 655.668 Q 1198.234 663.293 1198.234 673.419 L 1198.234 673.419 L 1198.234 673.419 Q 1198.234 683.545 1193.964 691.17 L 1193.964 691.17 L 1193.964 691.17 Q 1189.693 698.795 1182.191 703.004 L 1182.191 703.004 L 1182.191 703.004 Q 1174.688 707.213 1165.537 707.213 L 1165.537 707.213 L 1165.537 707.213 Q 1152.972 707.213 1145.774 699.283 L 1145.774 699.283 L 1145.774 729.905 L 1126.742 729.905 L 1126.742 640.601 L 1144.92 640.601 L 1144.92 648.165 L 1144.92 648.165 Q 1151.995 639.625 1165.537 639.625 L 1165.537 639.625 Z  M 1162.244 691.597 L 1162.244 691.597 Q 1169.564 691.597 1174.261 686.656 L 1174.261 686.656 L 1174.261 686.656 Q 1178.958 681.715 1178.958 673.419 L 1178.958 673.419 L 1178.958 673.419 Q 1178.958 665.123 1174.261 660.182 L 1174.261 660.182 L 1174.261 660.182 Q 1169.564 655.241 1162.244 655.241 L 1162.244 655.241 L 1162.244 655.241 Q 1154.923 655.241 1150.226 660.182 L 1150.226 660.182 L 1150.226 660.182 Q 1145.53 665.123 1145.53 673.419 L 1145.53 673.419 L 1145.53 673.419 Q 1145.53 681.715 1150.226 686.656 L 1150.226 686.656 L 1150.226 686.656 Q 1154.923 691.597 1162.244 691.597 L 1162.244 691.597 Z  M 1253.134 707.701 L 1253.134 707.701 Q 1240.079 707.701 1229.526 702.028 L 1229.526 702.028 L 1229.526 702.028 Q 1218.974 696.355 1212.934 686.29 L 1212.934 686.29 L 1212.934 686.29 Q 1206.896 676.225 1206.896 663.537 L 1206.896 663.537 L 1206.896 663.537 Q 1206.896 650.849 1212.934 640.784 L 1212.934 640.784 L 1212.934 640.784 Q 1218.974 630.719 1229.526 625.046 L 1229.526 625.046 L 1229.526 625.046 Q 1240.079 619.373 1253.255 619.373 L 1253.255 619.373 L 1253.255 619.373 Q 1264.358 619.373 1273.325 623.277 L 1273.325 623.277 L 1273.325 623.277 Q 1282.292 627.181 1288.391 634.501 L 1288.391 634.501 L 1275.703 646.213 L 1275.703 646.213 Q 1267.042 636.209 1254.232 636.209 L 1254.232 636.209 L 1254.232 636.209 Q 1246.302 636.209 1240.079 639.686 L 1240.079 639.686 L 1240.079 639.686 Q 1233.858 643.163 1230.38 649.385 L 1230.38 649.385 L 1230.38 649.385 Q 1226.903 655.607 1226.903 663.537 L 1226.903 663.537 L 1226.903 663.537 Q 1226.903 671.467 1230.38 677.689 L 1230.38 677.689 L 1230.38 677.689 Q 1233.858 683.911 1240.079 687.388 L 1240.079 687.388 L 1240.079 687.388 Q 1246.302 690.865 1254.232 690.865 L 1254.232 690.865 L 1254.232 690.865 Q 1267.042 690.865 1275.703 680.739 L 1275.703 680.739 L 1288.391 692.451 L 1288.391 692.451 Q 1282.292 699.893 1273.264 703.797 L 1273.264 703.797 L 1273.264 703.797 Q 1264.235 707.701 1253.134 707.701 L 1253.134 707.701 Z  M 1329.262 707.213 L 1329.262 707.213 Q 1318.891 707.213 1310.657 702.882 L 1310.657 702.882 L 1310.657 702.882 Q 1302.422 698.551 1297.786 690.865 L 1297.786 690.865 L 1297.786 690.865 Q 1293.15 683.179 1293.15 673.419 L 1293.15 673.419 L 1293.15 673.419 Q 1293.15 663.659 1297.786 655.973 L 1297.786 655.973 L 1297.786 655.973 Q 1302.422 648.287 1310.657 643.956 L 1310.657 643.956 L 1310.657 643.956 Q 1318.891 639.625 1329.262 639.625 L 1329.262 639.625 L 1329.262 639.625 Q 1339.631 639.625 1347.806 643.956 L 1347.806 643.956 L 1347.806 643.956 Q 1355.98 648.287 1360.616 655.973 L 1360.616 655.973 L 1360.616 655.973 Q 1365.252 663.659 1365.252 673.419 L 1365.252 673.419 L 1365.252 673.419 Q 1365.252 683.179 1360.616 690.865 L 1360.616 690.865 L 1360.616 690.865 Q 1355.98 698.551 1347.806 702.882 L 1347.806 702.882 L 1347.806 702.882 Q 1339.631 707.213 1329.262 707.213 L 1329.262 707.213 Z  M 1329.262 691.597 L 1329.262 691.597 Q 1336.582 691.597 1341.278 686.656 L 1341.278 686.656 L 1341.278 686.656 Q 1345.975 681.715 1345.975 673.419 L 1345.975 673.419 L 1345.975 673.419 Q 1345.975 665.123 1341.278 660.182 L 1341.278 660.182 L 1341.278 660.182 Q 1336.582 655.241 1329.262 655.241 L 1329.262 655.241 L 1329.262 655.241 Q 1321.942 655.241 1317.183 660.182 L 1317.183 660.182 L 1317.183 660.182 Q 1312.426 665.123 1312.426 673.419 L 1312.426 673.419 L 1312.426 673.419 Q 1312.426 681.715 1317.183 686.656 L 1317.183 686.656 L 1317.183 686.656 Q 1321.942 691.597 1329.262 691.597 L 1329.262 691.597 Z  M 1425.764 615.713 L 1444.796 615.713 L 1444.796 706.237 L 1426.618 706.237 L 1426.618 698.673 L 1426.618 698.673 Q 1419.542 707.213 1406.121 707.213 L 1406.121 707.213 L 1406.121 707.213 Q 1396.849 707.213 1389.347 703.065 L 1389.347 703.065 L 1389.347 703.065 Q 1381.844 698.917 1377.574 691.231 L 1377.574 691.231 L 1377.574 691.231 Q 1373.304 683.545 1373.304 673.419 L 1373.304 673.419 L 1373.304 673.419 Q 1373.304 663.293 1377.574 655.607 L 1377.574 655.607 L 1377.574 655.607 Q 1381.844 647.921 1389.347 643.773 L 1389.347 643.773 L 1389.347 643.773 Q 1396.849 639.625 1406.121 639.625 L 1406.121 639.625 L 1406.121 639.625 Q 1418.688 639.625 1425.764 647.555 L 1425.764 647.555 L 1425.764 615.713 Z  M 1409.416 691.597 L 1409.416 691.597 Q 1416.614 691.597 1421.371 686.656 L 1421.371 686.656 L 1421.371 686.656 Q 1426.13 681.715 1426.13 673.419 L 1426.13 673.419 L 1426.13 673.419 Q 1426.13 665.123 1421.371 660.182 L 1421.371 660.182 L 1421.371 660.182 Q 1416.614 655.241 1409.416 655.241 L 1409.416 655.241 L 1409.416 655.241 Q 1402.096 655.241 1397.338 660.182 L 1397.338 660.182 L 1397.338 660.182 Q 1392.579 665.123 1392.579 673.419 L 1392.579 673.419 L 1392.579 673.419 Q 1392.579 681.715 1397.338 686.656 L 1397.338 686.656 L 1397.338 686.656 Q 1402.096 691.597 1409.416 691.597 L 1409.416 691.597 Z  M 1526.658 673.663 L 1526.658 673.663 Q 1526.658 674.029 1526.292 678.787 L 1526.292 678.787 L 1476.638 678.787 L 1476.638 678.787 Q 1477.98 684.887 1482.982 688.425 L 1482.982 688.425 L 1482.982 688.425 Q 1487.984 691.963 1495.426 691.963 L 1495.426 691.963 L 1495.426 691.963 Q 1500.549 691.963 1504.515 690.438 L 1504.515 690.438 L 1504.515 690.438 Q 1508.48 688.913 1511.896 685.619 L 1511.896 685.619 L 1522.022 696.599 L 1522.022 696.599 Q 1512.75 707.213 1494.938 707.213 L 1494.938 707.213 L 1494.938 707.213 Q 1483.836 707.213 1475.296 702.882 L 1475.296 702.882 L 1475.296 702.882 Q 1466.755 698.551 1462.12 690.865 L 1462.12 690.865 L 1462.12 690.865 Q 1457.484 683.179 1457.484 673.419 L 1457.484 673.419 L 1457.484 673.419 Q 1457.484 663.781 1462.058 656.034 L 1462.058 656.034 L 1462.058 656.034 Q 1466.634 648.287 1474.625 643.956 L 1474.625 643.956 L 1474.625 643.956 Q 1482.616 639.625 1492.497 639.625 L 1492.497 639.625 L 1492.497 639.625 Q 1502.136 639.625 1509.943 643.773 L 1509.943 643.773 L 1509.943 643.773 Q 1517.752 647.921 1522.204 655.668 L 1522.204 655.668 L 1522.204 655.668 Q 1526.658 663.415 1526.658 673.663 L 1526.658 673.663 Z  M 1492.62 654.021 L 1492.62 654.021 Q 1486.153 654.021 1481.762 657.681 L 1481.762 657.681 L 1481.762 657.681 Q 1477.37 661.341 1476.394 667.685 L 1476.394 667.685 L 1508.724 667.685 L 1508.724 667.685 Q 1507.747 661.463 1503.356 657.742 L 1503.356 657.742 L 1503.356 657.742 Q 1498.964 654.021 1492.62 654.021 L 1492.62 654.021 Z  M 1557.524 649.263 L 1557.524 649.263 Q 1560.94 644.505 1566.734 642.065 L 1566.734 642.065 L 1566.734 642.065 Q 1572.53 639.625 1580.094 639.625 L 1580.094 639.625 L 1580.094 657.193 L 1580.094 657.193 Q 1576.922 656.949 1575.824 656.949 L 1575.824 656.949 L 1575.824 656.949 Q 1567.65 656.949 1563.014 661.524 L 1563.014 661.524 L 1563.014 661.524 Q 1558.378 666.099 1558.378 675.249 L 1558.378 675.249 L 1558.378 706.237 L 1539.346 706.237 L 1539.346 640.601 L 1557.524 640.601 L 1557.524 649.263 Z " fill-rule="evenodd" fill="rgb(23,23,23)"/><clipPath id="_clipPath_Wg1f80PrzZB6ZYcHtkpB2bwp2zYyQL6F"><path d=" M 556.434 573.901 C 529.431 537.848 486.374 514.5 437.906 514.5 C 356.223 514.5 289.906 580.817 289.906 662.5 L 289.906 662.5 C 289.906 744.183 356.223 810.5 437.906 810.5 C 486.374 810.5 529.431 787.152 556.434 751.099 L 516.39 721.166 C 513.585 724.912 510.51 728.46 507.186 731.78 C 498.246 740.73 487.656 747.87 476.006 752.81 C 463.956 757.9 450.996 760.52 437.906 760.5 C 424.816 760.52 411.856 757.9 399.806 752.81 C 388.156 747.87 377.566 740.73 368.626 731.78 C 359.676 722.84 352.536 712.25 347.596 700.6 C 342.506 688.55 339.886 675.59 339.906 662.5 L 339.906 662.5 C 339.886 649.4 342.506 636.43 347.606 624.37 C 352.536 612.75 359.676 602.16 368.626 593.22 C 377.566 584.27 388.156 577.13 399.806 572.19 C 411.856 567.1 424.816 564.48 437.906 564.5 C 450.996 564.48 463.956 567.1 476.006 572.19 C 487.656 577.13 498.246 584.27 507.186 593.22 C 510.51 596.54 513.585 600.088 516.39 603.834 L 556.434 573.901 Z  M 822.962 573.901 C 795.958 537.848 752.901 514.5 704.434 514.5 C 622.75 514.5 556.434 580.817 556.434 662.5 L 556.434 662.5 C 556.434 744.183 622.75 810.5 704.434 810.5 C 752.901 810.5 795.958 787.152 822.962 751.099 L 782.917 721.166 C 780.113 724.912 777.038 728.46 773.714 731.78 C 764.774 740.73 754.184 747.87 742.534 752.81 C 730.484 757.9 717.524 760.52 704.434 760.5 C 691.344 760.52 678.384 757.9 666.334 752.81 C 654.684 747.87 644.094 740.73 635.154 731.78 C 626.204 722.84 619.064 712.25 614.124 700.6 C 609.034 688.55 606.414 675.59 606.434 662.5 L 606.434 662.5 C 606.414 649.4 609.034 636.43 614.134 624.37 C 619.064 612.75 626.204 602.16 635.154 593.22 C 644.094 584.27 654.684 577.13 666.334 572.19 C 678.384 567.1 691.344 564.48 704.434 564.5 C 717.524 564.48 730.484 567.1 742.534 572.19 C 754.184 577.13 764.774 584.27 773.714 593.22 C 777.038 596.54 780.113 600.088 782.917 603.834 L 822.962 573.901 Z  M 873.958 707.701 L 873.958 707.701 Q 860.903 707.701 850.35 702.028 L 850.35 702.028 L 850.35 702.028 Q 839.797 696.355 833.759 686.29 L 833.759 686.29 L 833.759 686.29 Q 827.72 676.225 827.72 663.537 L 827.72 663.537 L 827.72 663.537 Q 827.72 650.849 833.759 640.784 L 833.759 640.784 L 833.759 640.784 Q 839.797 630.719 850.35 625.046 L 850.35 625.046 L 850.35 625.046 Q 860.903 619.373 874.079 619.373 L 874.079 619.373 L 874.079 619.373 Q 885.182 619.373 894.149 623.277 L 894.149 623.277 L 894.149 623.277 Q 903.116 627.181 909.215 634.501 L 909.215 634.501 L 896.527 646.213 L 896.527 646.213 Q 887.866 636.209 875.056 636.209 L 875.056 636.209 L 875.056 636.209 Q 867.126 636.209 860.903 639.686 L 860.903 639.686 L 860.903 639.686 Q 854.682 643.163 851.204 649.385 L 851.204 649.385 L 851.204 649.385 Q 847.728 655.607 847.728 663.537 L 847.728 663.537 L 847.728 663.537 Q 847.728 671.467 851.204 677.689 L 851.204 677.689 L 851.204 677.689 Q 854.682 683.911 860.903 687.388 L 860.903 687.388 L 860.903 687.388 Q 867.126 690.865 875.056 690.865 L 875.056 690.865 L 875.056 690.865 Q 887.866 690.865 896.527 680.739 L 896.527 680.739 L 909.215 692.451 L 909.215 692.451 Q 903.116 699.893 894.088 703.797 L 894.088 703.797 L 894.088 703.797 Q 885.059 707.701 873.958 707.701 L 873.958 707.701 Z  M 950.086 707.213 L 950.086 707.213 Q 939.715 707.213 931.481 702.882 L 931.481 702.882 L 931.481 702.882 Q 923.245 698.551 918.609 690.865 L 918.609 690.865 L 918.609 690.865 Q 913.974 683.179 913.974 673.419 L 913.974 673.419 L 913.974 673.419 Q 913.974 663.659 918.609 655.973 L 918.609 655.973 L 918.609 655.973 Q 923.245 648.287 931.481 643.956 L 931.481 643.956 L 931.481 643.956 Q 939.715 639.625 950.086 639.625 L 950.086 639.625 L 950.086 639.625 Q 960.455 639.625 968.63 643.956 L 968.63 643.956 L 968.63 643.956 Q 976.804 648.287 981.44 655.973 L 981.44 655.973 L 981.44 655.973 Q 986.076 663.659 986.076 673.419 L 986.076 673.419 L 986.076 673.419 Q 986.076 683.179 981.44 690.865 L 981.44 690.865 L 981.44 690.865 Q 976.804 698.551 968.63 702.882 L 968.63 702.882 L 968.63 702.882 Q 960.455 707.213 950.086 707.213 L 950.086 707.213 Z  M 950.086 691.597 L 950.086 691.597 Q 957.406 691.597 962.103 686.656 L 962.103 686.656 L 962.103 686.656 Q 966.799 681.715 966.799 673.419 L 966.799 673.419 L 966.799 673.419 Q 966.799 665.123 962.103 660.182 L 962.103 660.182 L 962.103 660.182 Q 957.406 655.241 950.086 655.241 L 950.086 655.241 L 950.086 655.241 Q 942.766 655.241 938.007 660.182 L 938.007 660.182 L 938.007 660.182 Q 933.25 665.123 933.25 673.419 L 933.25 673.419 L 933.25 673.419 Q 933.25 681.715 938.007 686.656 L 938.007 686.656 L 938.007 686.656 Q 942.766 691.597 950.086 691.597 L 950.086 691.597 Z  M 1082.822 639.625 L 1082.822 639.625 Q 1095.144 639.625 1102.402 646.884 L 1102.402 646.884 L 1102.402 646.884 Q 1109.661 654.143 1109.661 668.661 L 1109.661 668.661 L 1109.661 706.237 L 1090.63 706.237 L 1090.63 671.589 L 1090.63 671.589 Q 1090.63 663.781 1087.397 659.938 L 1087.397 659.938 L 1087.397 659.938 Q 1084.163 656.095 1078.186 656.095 L 1078.186 656.095 L 1078.186 656.095 Q 1071.475 656.095 1067.572 660.426 L 1067.572 660.426 L 1067.572 660.426 Q 1063.668 664.757 1063.668 673.297 L 1063.668 673.297 L 1063.668 706.237 L 1044.636 706.237 L 1044.636 671.589 L 1044.636 671.589 Q 1044.636 656.095 1032.192 656.095 L 1032.192 656.095 L 1032.192 656.095 Q 1025.604 656.095 1021.7 660.426 L 1021.7 660.426 L 1021.7 660.426 Q 1017.796 664.757 1017.796 673.297 L 1017.796 673.297 L 1017.796 706.237 L 998.764 706.237 L 998.764 640.601 L 1016.942 640.601 L 1016.942 648.165 L 1016.942 648.165 Q 1020.601 644.017 1025.909 641.821 L 1025.909 641.821 L 1025.909 641.821 Q 1031.215 639.625 1037.559 639.625 L 1037.559 639.625 L 1037.559 639.625 Q 1044.514 639.625 1050.126 642.37 L 1050.126 642.37 L 1050.126 642.37 Q 1055.738 645.115 1059.153 650.361 L 1059.153 650.361 L 1059.153 650.361 Q 1063.18 645.237 1069.34 642.431 L 1069.34 642.431 L 1069.34 642.431 Q 1075.502 639.625 1082.822 639.625 L 1082.822 639.625 Z  M 1165.537 639.625 L 1165.537 639.625 Q 1174.688 639.625 1182.191 643.834 L 1182.191 643.834 L 1182.191 643.834 Q 1189.693 648.043 1193.964 655.668 L 1193.964 655.668 L 1193.964 655.668 Q 1198.234 663.293 1198.234 673.419 L 1198.234 673.419 L 1198.234 673.419 Q 1198.234 683.545 1193.964 691.17 L 1193.964 691.17 L 1193.964 691.17 Q 1189.693 698.795 1182.191 703.004 L 1182.191 703.004 L 1182.191 703.004 Q 1174.688 707.213 1165.537 707.213 L 1165.537 707.213 L 1165.537 707.213 Q 1152.972 707.213 1145.774 699.283 L 1145.774 699.283 L 1145.774 729.905 L 1126.742 729.905 L 1126.742 640.601 L 1144.92 640.601 L 1144.92 648.165 L 1144.92 648.165 Q 1151.995 639.625 1165.537 639.625 L 1165.537 639.625 Z  M 1162.244 691.597 L 1162.244 691.597 Q 1169.564 691.597 1174.261 686.656 L 1174.261 686.656 L 1174.261 686.656 Q 1178.958 681.715 1178.958 673.419 L 1178.958 673.419 L 1178.958 673.419 Q 1178.958 665.123 1174.261 660.182 L 1174.261 660.182 L 1174.261 660.182 Q 1169.564 655.241 1162.244 655.241 L 1162.244 655.241 L 1162.244 655.241 Q 1154.923 655.241 1150.226 660.182 L 1150.226 660.182 L 1150.226 660.182 Q 1145.53 665.123 1145.53 673.419 L 1145.53 673.419 L 1145.53 673.419 Q 1145.53 681.715 1150.226 686.656 L 1150.226 686.656 L 1150.226 686.656 Q 1154.923 691.597 1162.244 691.597 L 1162.244 691.597 Z  M 1253.134 707.701 L 1253.134 707.701 Q 1240.079 707.701 1229.526 702.028 L 1229.526 702.028 L 1229.526 702.028 Q 1218.974 696.355 1212.934 686.29 L 1212.934 686.29 L 1212.934 686.29 Q 1206.896 676.225 1206.896 663.537 L 1206.896 663.537 L 1206.896 663.537 Q 1206.896 650.849 1212.934 640.784 L 1212.934 640.784 L 1212.934 640.784 Q 1218.974 630.719 1229.526 625.046 L 1229.526 625.046 L 1229.526 625.046 Q 1240.079 619.373 1253.255 619.373 L 1253.255 619.373 L 1253.255 619.373 Q 1264.358 619.373 1273.325 623.277 L 1273.325 623.277 L 1273.325 623.277 Q 1282.292 627.181 1288.391 634.501 L 1288.391 634.501 L 1275.703 646.213 L 1275.703 646.213 Q 1267.042 636.209 1254.232 636.209 L 1254.232 636.209 L 1254.232 636.209 Q 1246.302 636.209 1240.079 639.686 L 1240.079 639.686 L 1240.079 639.686 Q 1233.858 643.163 1230.38 649.385 L 1230.38 649.385 L 1230.38 649.385 Q 1226.903 655.607 1226.903 663.537 L 1226.903 663.537 L 1226.903 663.537 Q 1226.903 671.467 1230.38 677.689 L 1230.38 677.689 L 1230.38 677.689 Q 1233.858 683.911 1240.079 687.388 L 1240.079 687.388 L 1240.079 687.388 Q 1246.302 690.865 1254.232 690.865 L 1254.232 690.865 L 1254.232 690.865 Q 1267.042 690.865 1275.703 680.739 L 1275.703 680.739 L 1288.391 692.451 L 1288.391 692.451 Q 1282.292 699.893 1273.264 703.797 L 1273.264 703.797 L 1273.264 703.797 Q 1264.235 707.701 1253.134 707.701 L 1253.134 707.701 Z  M 1329.262 707.213 L 1329.262 707.213 Q 1318.891 707.213 1310.657 702.882 L 1310.657 702.882 L 1310.657 702.882 Q 1302.422 698.551 1297.786 690.865 L 1297.786 690.865 L 1297.786 690.865 Q 1293.15 683.179 1293.15 673.419 L 1293.15 673.419 L 1293.15 673.419 Q 1293.15 663.659 1297.786 655.973 L 1297.786 655.973 L 1297.786 655.973 Q 1302.422 648.287 1310.657 643.956 L 1310.657 643.956 L 1310.657 643.956 Q 1318.891 639.625 1329.262 639.625 L 1329.262 639.625 L 1329.262 639.625 Q 1339.631 639.625 1347.806 643.956 L 1347.806 643.956 L 1347.806 643.956 Q 1355.98 648.287 1360.616 655.973 L 1360.616 655.973 L 1360.616 655.973 Q 1365.252 663.659 1365.252 673.419 L 1365.252 673.419 L 1365.252 673.419 Q 1365.252 683.179 1360.616 690.865 L 1360.616 690.865 L 1360.616 690.865 Q 1355.98 698.551 1347.806 702.882 L 1347.806 702.882 L 1347.806 702.882 Q 1339.631 707.213 1329.262 707.213 L 1329.262 707.213 Z  M 1329.262 691.597 L 1329.262 691.597 Q 1336.582 691.597 1341.278 686.656 L 1341.278 686.656 L 1341.278 686.656 Q 1345.975 681.715 1345.975 673.419 L 1345.975 673.419 L 1345.975 673.419 Q 1345.975 665.123 1341.278 660.182 L 1341.278 660.182 L 1341.278 660.182 Q 1336.582 655.241 1329.262 655.241 L 1329.262 655.241 L 1329.262 655.241 Q 1321.942 655.241 1317.183 660.182 L 1317.183 660.182 L 1317.183 660.182 Q 1312.426 665.123 1312.426 673.419 L 1312.426 673.419 L 1312.426 673.419 Q 1312.426 681.715 1317.183 686.656 L 1317.183 686.656 L 1317.183 686.656 Q 1321.942 691.597 1329.262 691.597 L 1329.262 691.597 Z  M 1425.764 615.713 L 1444.796 615.713 L 1444.796 706.237 L 1426.618 706.237 L 1426.618 698.673 L 1426.618 698.673 Q 1419.542 707.213 1406.121 707.213 L 1406.121 707.213 L 1406.121 707.213 Q 1396.849 707.213 1389.347 703.065 L 1389.347 703.065 L 1389.347 703.065 Q 1381.844 698.917 1377.574 691.231 L 1377.574 691.231 L 1377.574 691.231 Q 1373.304 683.545 1373.304 673.419 L 1373.304 673.419 L 1373.304 673.419 Q 1373.304 663.293 1377.574 655.607 L 1377.574 655.607 L 1377.574 655.607 Q 1381.844 647.921 1389.347 643.773 L 1389.347 643.773 L 1389.347 643.773 Q 1396.849 639.625 1406.121 639.625 L 1406.121 639.625 L 1406.121 639.625 Q 1418.688 639.625 1425.764 647.555 L 1425.764 647.555 L 1425.764 615.713 Z  M 1409.416 691.597 L 1409.416 691.597 Q 1416.614 691.597 1421.371 686.656 L 1421.371 686.656 L 1421.371 686.656 Q 1426.13 681.715 1426.13 673.419 L 1426.13 673.419 L 1426.13 673.419 Q 1426.13 665.123 1421.371 660.182 L 1421.371 660.182 L 1421.371 660.182 Q 1416.614 655.241 1409.416 655.241 L 1409.416 655.241 L 1409.416 655.241 Q 1402.096 655.241 1397.338 660.182 L 1397.338 660.182 L 1397.338 660.182 Q 1392.579 665.123 1392.579 673.419 L 1392.579 673.419 L 1392.579 673.419 Q 1392.579 681.715 1397.338 686.656 L 1397.338 686.656 L 1397.338 686.656 Q 1402.096 691.597 1409.416 691.597 L 1409.416 691.597 Z  M 1526.658 673.663 L 1526.658 673.663 Q 1526.658 674.029 1526.292 678.787 L 1526.292 678.787 L 1476.638 678.787 L 1476.638 678.787 Q 1477.98 684.887 1482.982 688.425 L 1482.982 688.425 L 1482.982 688.425 Q 1487.984 691.963 1495.426 691.963 L 1495.426 691.963 L 1495.426 691.963 Q 1500.549 691.963 1504.515 690.438 L 1504.515 690.438 L 1504.515 690.438 Q 1508.48 688.913 1511.896 685.619 L 1511.896 685.619 L 1522.022 696.599 L 1522.022 696.599 Q 1512.75 707.213 1494.938 707.213 L 1494.938 707.213 L 1494.938 707.213 Q 1483.836 707.213 1475.296 702.882 L 1475.296 702.882 L 1475.296 702.882 Q 1466.755 698.551 1462.12 690.865 L 1462.12 690.865 L 1462.12 690.865 Q 1457.484 683.179 1457.484 673.419 L 1457.484 673.419 L 1457.484 673.419 Q 1457.484 663.781 1462.058 656.034 L 1462.058 656.034 L 1462.058 656.034 Q 1466.634 648.287 1474.625 643.956 L 1474.625 643.956 L 1474.625 643.956 Q 1482.616 639.625 1492.497 639.625 L 1492.497 639.625 L 1492.497 639.625 Q 1502.136 639.625 1509.943 643.773 L 1509.943 643.773 L 1509.943 643.773 Q 1517.752 647.921 1522.204 655.668 L 1522.204 655.668 L 1522.204 655.668 Q 1526.658 663.415 1526.658 673.663 L 1526.658 673.663 Z  M 1492.62 654.021 L 1492.62 654.021 Q 1486.153 654.021 1481.762 657.681 L 1481.762 657.681 L 1481.762 657.681 Q 1477.37 661.341 1476.394 667.685 L 1476.394 667.685 L 1508.724 667.685 L 1508.724 667.685 Q 1507.747 661.463 1503.356 657.742 L 1503.356 657.742 L 1503.356 657.742 Q 1498.964 654.021 1492.62 654.021 L 1492.62 654.021 Z  M 1557.524 649.263 L 1557.524 649.263 Q 1560.94 644.505 1566.734 642.065 L 1566.734 642.065 L 1566.734 642.065 Q 1572.53 639.625 1580.094 639.625 L 1580.094 639.625 L 1580.094 657.193 L 1580.094 657.193 Q 1576.922 656.949 1575.824 656.949 L 1575.824 656.949 L 1575.824 656.949 Q 1567.65 656.949 1563.014 661.524 L 1563.014 661.524 L 1563.014 661.524 Q 1558.378 666.099 1558.378 675.249 L 1558.378 675.249 L 1558.378 706.237 L 1539.346 706.237 L 1539.346 640.601 L 1557.524 640.601 L 1557.524 649.263 Z " fill-rule="evenodd" fill="rgb(23,23,23)"/></clipPath><g clip-path="url(#_clipPath_Wg1f80PrzZB6ZYcHtkpB2bwp2zYyQL6F)"><linearGradient id="_lgradient_5" x1="0" y1="0.5" x2="1" y2="0.5" gradientTransform="matrix(789.124,0,0,304.085,391.386,550.154)" gradientUnits="userSpaceOnUse"><stop offset="2.083333333333333%" stop-opacity="1" style="stop-color:rgb(255,50,50)"/><stop offset="99.16666666666667%" stop-opacity="1" style="stop-color:rgb(238,150,18)"/></linearGradient><rect x="391.386" y="550.154" width="789.124" height="304.085" transform="matrix(0.796,-0.606,0.606,0.796,-264.746,619.514)" fill="url(#_lgradient_5)"/></g></g></svg>