<?xml version="1.0" encoding="UTF-8" standalone="no"?><!-- Generator: Gravit.io --><svg xmlns="http://www.w3.org/2000/svg" xmlns:xlink="http://www.w3.org/1999/xlink" style="isolation:isolate" viewBox="229 350.5 1412 416" width="1412pt" height="416pt"><defs><clipPath id="_clipPath_9gP13nRMCaE3IATKFtxKFChsYR3Rwe5Y"><rect x="229" y="350.5" width="1412" height="416"/></clipPath></defs><g clip-path="url(#_clipPath_9gP13nRMCaE3IATKFtxKFChsYR3Rwe5Y)"><g><path d=" M 229 350.5 L 1641 350.5 L 1641 766.5 L 229 766.5 L 229 350.5 Z " fill="rgb(30,30,30)"/><path d=" M 556.434 469.901 C 529.431 433.848 486.374 410.5 437.906 410.5 C 356.223 410.5 289.906 476.817 289.906 558.5 L 289.906 558.5 C 289.906 640.183 356.223 706.5 437.906 706.5 C 486.374 706.5 529.431 683.152 556.434 647.099 L 516.39 617.166 C 513.585 620.912 510.51 624.46 507.186 627.78 C 498.246 636.73 487.656 643.87 476.006 648.81 C 463.956 653.9 450.996 656.52 437.906 656.5 C 424.816 656.52 411.856 653.9 399.806 648.81 C 388.156 643.87 377.566 636.73 368.626 627.78 C 359.676 618.84 352.536 608.25 347.596 596.6 C 342.506 584.55 339.886 571.59 339.906 558.5 L 339.906 558.5 C 339.886 545.4 342.506 532.43 347.606 520.37 C 352.536 508.75 359.676 498.16 368.626 489.22 C 377.566 480.27 388.156 473.13 399.806 468.19 C 411.856 463.1 424.816 460.48 437.906 460.5 C 450.996 460.48 463.956 463.1 476.006 468.19 C 487.656 473.13 498.246 480.27 507.186 489.22 C 510.51 492.54 513.585 496.088 516.39 499.834 L 556.434 469.901 Z  M 822.962 469.901 C 795.958 433.848 752.901 410.5 704.434 410.5 C 622.75 410.5 556.434 476.817 556.434 558.5 L 556.434 558.5 C 556.434 640.183 622.75 706.5 704.434 706.5 C 752.901 706.5 795.958 683.152 822.962 647.099 L 782.917 617.166 C 780.113 620.912 777.038 624.46 773.714 627.78 C 764.774 636.73 754.184 643.87 742.534 648.81 C 730.484 653.9 717.524 656.52 704.434 656.5 C 691.344 656.52 678.384 653.9 666.334 648.81 C 654.684 643.87 644.094 636.73 635.154 627.78 C 626.204 618.84 619.064 608.25 614.124 596.6 C 609.034 584.55 606.414 571.59 606.434 558.5 L 606.434 558.5 C 606.414 545.4 609.034 532.43 614.134 520.37 C 619.064 508.75 626.204 498.16 635.154 489.22 C 644.094 480.27 654.684 473.13 666.334 468.19 C 678.384 463.1 691.344 460.48 704.434 460.5 C 717.524 460.48 730.484 463.1 742.534 468.19 C 754.184 473.13 764.774 480.27 773.714 489.22 C 777.038 492.54 780.113 496.088 782.917 499.834 L 822.962 469.901 Z  M 873.958 603.701 L 873.958 603.701 Q 860.903 603.701 850.35 598.028 L 850.35 598.028 L 850.35 598.028 Q 839.797 592.355 833.759 582.29 L 833.759 582.29 L 833.759 582.29 Q 827.72 572.225 827.72 559.537 L 827.72 559.537 L 827.72 559.537 Q 827.72 546.849 833.759 536.784 L 833.759 536.784 L 833.759 536.784 Q 839.797 526.719 850.35 521.046 L 850.35 521.046 L 850.35 521.046 Q 860.903 515.373 874.079 515.373 L 874.079 515.373 L 874.079 515.373 Q 885.182 515.373 894.149 519.277 L 894.149 519.277 L 894.149 519.277 Q 903.116 523.181 909.215 530.501 L 909.215 530.501 L 896.527 542.213 L 896.527 542.213 Q 887.866 532.209 875.056 532.209 L 875.056 532.209 L 875.056 532.209 Q 867.126 532.209 860.903 535.686 L 860.903 535.686 L 860.903 535.686 Q 854.682 539.163 851.204 545.385 L 851.204 545.385 L 851.204 545.385 Q 847.728 551.607 847.728 559.537 L 847.728 559.537 L 847.728 559.537 Q 847.728 567.467 851.204 573.689 L 851.204 573.689 L 851.204 573.689 Q 854.682 579.911 860.903 583.388 L 860.903 583.388 L 860.903 583.388 Q 867.126 586.865 875.056 586.865 L 875.056 586.865 L 875.056 586.865 Q 887.866 586.865 896.527 576.739 L 896.527 576.739 L 909.215 588.451 L 909.215 588.451 Q 903.116 595.893 894.088 599.797 L 894.088 599.797 L 894.088 599.797 Q 885.059 603.701 873.958 603.701 L 873.958 603.701 Z  M 950.086 603.213 L 950.086 603.213 Q 939.715 603.213 931.481 598.882 L 931.481 598.882 L 931.481 598.882 Q 923.245 594.551 918.609 586.865 L 918.609 586.865 L 918.609 586.865 Q 913.974 579.179 913.974 569.419 L 913.974 569.419 L 913.974 569.419 Q 913.974 559.659 918.609 551.973 L 918.609 551.973 L 918.609 551.973 Q 923.245 544.287 931.481 539.956 L 931.481 539.956 L 931.481 539.956 Q 939.715 535.625 950.086 535.625 L 950.086 535.625 L 950.086 535.625 Q 960.455 535.625 968.63 539.956 L 968.63 539.956 L 968.63 539.956 Q 976.804 544.287 981.44 551.973 L 981.44 551.973 L 981.44 551.973 Q 986.076 559.659 986.076 569.419 L 986.076 569.419 L 986.076 569.419 Q 986.076 579.179 981.44 586.865 L 981.44 586.865 L 981.44 586.865 Q 976.804 594.551 968.63 598.882 L 968.63 598.882 L 968.63 598.882 Q 960.455 603.213 950.086 603.213 L 950.086 603.213 Z  M 950.086 587.597 L 950.086 587.597 Q 957.406 587.597 962.103 582.656 L 962.103 582.656 L 962.103 582.656 Q 966.799 577.715 966.799 569.419 L 966.799 569.419 L 966.799 569.419 Q 966.799 561.123 962.103 556.182 L 962.103 556.182 L 962.103 556.182 Q 957.406 551.241 950.086 551.241 L 950.086 551.241 L 950.086 551.241 Q 942.766 551.241 938.007 556.182 L 938.007 556.182 L 938.007 556.182 Q 933.25 561.123 933.25 569.419 L 933.25 569.419 L 933.25 569.419 Q 933.25 577.715 938.007 582.656 L 938.007 582.656 L 938.007 582.656 Q 942.766 587.597 950.086 587.597 L 950.086 587.597 Z  M 1082.822 535.625 L 1082.822 535.625 Q 1095.144 535.625 1102.402 542.884 L 1102.402 542.884 L 1102.402 542.884 Q 1109.661 550.143 1109.661 564.661 L 1109.661 564.661 L 1109.661 602.237 L 1090.63 602.237 L 1090.63 567.589 L 1090.63 567.589 Q 1090.63 559.781 1087.397 555.938 L 1087.397 555.938 L 1087.397 555.938 Q 1084.163 552.095 1078.186 552.095 L 1078.186 552.095 L 1078.186 552.095 Q 1071.475 552.095 1067.572 556.426 L 1067.572 556.426 L 1067.572 556.426 Q 1063.668 560.757 1063.668 569.297 L 1063.668 569.297 L 1063.668 602.237 L 1044.636 602.237 L 1044.636 567.589 L 1044.636 567.589 Q 1044.636 552.095 1032.192 552.095 L 1032.192 552.095 L 1032.192 552.095 Q 1025.604 552.095 1021.7 556.426 L 1021.7 556.426 L 1021.7 556.426 Q 1017.796 560.757 1017.796 569.297 L 1017.796 569.297 L 1017.796 602.237 L 998.764 602.237 L 998.764 536.601 L 1016.942 536.601 L 1016.942 544.165 L 1016.942 544.165 Q 1020.601 540.017 1025.909 537.821 L 1025.909 537.821 L 1025.909 537.821 Q 1031.215 535.625 1037.559 535.625 L 1037.559 535.625 L 1037.559 535.625 Q 1044.514 535.625 1050.126 538.37 L 1050.126 538.37 L 1050.126 538.37 Q 1055.738 541.115 1059.153 546.361 L 1059.153 546.361 L 1059.153 546.361 Q 1063.18 541.237 1069.34 538.431 L 1069.34 538.431 L 1069.34 538.431 Q 1075.502 535.625 1082.822 535.625 L 1082.822 535.625 Z  M 1165.537 535.625 L 1165.537 535.625 Q 1174.688 535.625 1182.191 539.834 L 1182.191 539.834 L 1182.191 539.834 Q 1189.693 544.043 1193.964 551.668 L 1193.964 551.668 L 1193.964 551.668 Q 1198.234 559.293 1198.234 569.419 L 1198.234 569.419 L 1198.234 569.419 Q 1198.234 579.545 1193.964 587.17 L 1193.964 587.17 L 1193.964 587.17 Q 1189.693 594.795 1182.191 599.004 L 1182.191 599.004 L 1182.191 599.004 Q 1174.688 603.213 1165.537 603.213 L 1165.537 603.213 L 1165.537 603.213 Q 1152.972 603.213 1145.774 595.283 L 1145.774 595.283 L 1145.774 625.905 L 1126.742 625.905 L 1126.742 536.601 L 1144.92 536.601 L 1144.92 544.165 L 1144.92 544.165 Q 1151.995 535.625 1165.537 535.625 L 1165.537 535.625 Z  M 1162.244 587.597 L 1162.244 587.597 Q 1169.564 587.597 1174.261 582.656 L 1174.261 582.656 L 1174.261 582.656 Q 1178.958 577.715 1178.958 569.419 L 1178.958 569.419 L 1178.958 569.419 Q 1178.958 561.123 1174.261 556.182 L 1174.261 556.182 L 1174.261 556.182 Q 1169.564 551.241 1162.244 551.241 L 1162.244 551.241 L 1162.244 551.241 Q 1154.923 551.241 1150.226 556.182 L 1150.226 556.182 L 1150.226 556.182 Q 1145.53 561.123 1145.53 569.419 L 1145.53 569.419 L 1145.53 569.419 Q 1145.53 577.715 1150.226 582.656 L 1150.226 582.656 L 1150.226 582.656 Q 1154.923 587.597 1162.244 587.597 L 1162.244 587.597 Z  M 1253.134 603.701 L 1253.134 603.701 Q 1240.079 603.701 1229.526 598.028 L 1229.526 598.028 L 1229.526 598.028 Q 1218.974 592.355 1212.934 582.29 L 1212.934 582.29 L 1212.934 582.29 Q 1206.896 572.225 1206.896 559.537 L 1206.896 559.537 L 1206.896 559.537 Q 1206.896 546.849 1212.934 536.784 L 1212.934 536.784 L 1212.934 536.784 Q 1218.974 526.719 1229.526 521.046 L 1229.526 521.046 L 1229.526 521.046 Q 1240.079 515.373 1253.255 515.373 L 1253.255 515.373 L 1253.255 515.373 Q 1264.358 515.373 1273.325 519.277 L 1273.325 519.277 L 1273.325 519.277 Q 1282.292 523.181 1288.391 530.501 L 1288.391 530.501 L 1275.703 542.213 L 1275.703 542.213 Q 1267.042 532.209 1254.232 532.209 L 1254.232 532.209 L 1254.232 532.209 Q 1246.302 532.209 1240.079 535.686 L 1240.079 535.686 L 1240.079 535.686 Q 1233.858 539.163 1230.38 545.385 L 1230.38 545.385 L 1230.38 545.385 Q 1226.903 551.607 1226.903 559.537 L 1226.903 559.537 L 1226.903 559.537 Q 1226.903 567.467 1230.38 573.689 L 1230.38 573.689 L 1230.38 573.689 Q 1233.858 579.911 1240.079 583.388 L 1240.079 583.388 L 1240.079 583.388 Q 1246.302 586.865 1254.232 586.865 L 1254.232 586.865 L 1254.232 586.865 Q 1267.042 586.865 1275.703 576.739 L 1275.703 576.739 L 1288.391 588.451 L 1288.391 588.451 Q 1282.292 595.893 1273.264 599.797 L 1273.264 599.797 L 1273.264 599.797 Q 1264.235 603.701 1253.134 603.701 L 1253.134 603.701 Z  M 1329.262 603.213 L 1329.262 603.213 Q 1318.891 603.213 1310.657 598.882 L 1310.657 598.882 L 1310.657 598.882 Q 1302.422 594.551 1297.786 586.865 L 1297.786 586.865 L 1297.786 586.865 Q 1293.15 579.179 1293.15 569.419 L 1293.15 569.419 L 1293.15 569.419 Q 1293.15 559.659 1297.786 551.973 L 1297.786 551.973 L 1297.786 551.973 Q 1302.422 544.287 1310.657 539.956 L 1310.657 539.956 L 1310.657 539.956 Q 1318.891 535.625 1329.262 535.625 L 1329.262 535.625 L 1329.262 535.625 Q 1339.631 535.625 1347.806 539.956 L 1347.806 539.956 L 1347.806 539.956 Q 1355.98 544.287 1360.616 551.973 L 1360.616 551.973 L 1360.616 551.973 Q 1365.252 559.659 1365.252 569.419 L 1365.252 569.419 L 1365.252 569.419 Q 1365.252 579.179 1360.616 586.865 L 1360.616 586.865 L 1360.616 586.865 Q 1355.98 594.551 1347.806 598.882 L 1347.806 598.882 L 1347.806 598.882 Q 1339.631 603.213 1329.262 603.213 L 1329.262 603.213 Z  M 1329.262 587.597 L 1329.262 587.597 Q 1336.582 587.597 1341.278 582.656 L 1341.278 582.656 L 1341.278 582.656 Q 1345.975 577.715 1345.975 569.419 L 1345.975 569.419 L 1345.975 569.419 Q 1345.975 561.123 1341.278 556.182 L 1341.278 556.182 L 1341.278 556.182 Q 1336.582 551.241 1329.262 551.241 L 1329.262 551.241 L 1329.262 551.241 Q 1321.942 551.241 1317.183 556.182 L 1317.183 556.182 L 1317.183 556.182 Q 1312.426 561.123 1312.426 569.419 L 1312.426 569.419 L 1312.426 569.419 Q 1312.426 577.715 1317.183 582.656 L 1317.183 582.656 L 1317.183 582.656 Q 1321.942 587.597 1329.262 587.597 L 1329.262 587.597 Z  M 1425.764 511.713 L 1444.796 511.713 L 1444.796 602.237 L 1426.618 602.237 L 1426.618 594.673 L 1426.618 594.673 Q 1419.542 603.213 1406.121 603.213 L 1406.121 603.213 L 1406.121 603.213 Q 1396.849 603.213 1389.347 599.065 L 1389.347 599.065 L 1389.347 599.065 Q 1381.844 594.917 1377.574 587.231 L 1377.574 587.231 L 1377.574 587.231 Q 1373.304 579.545 1373.304 569.419 L 1373.304 569.419 L 1373.304 569.419 Q 1373.304 559.293 1377.574 551.607 L 1377.574 551.607 L 1377.574 551.607 Q 1381.844 543.921 1389.347 539.773 L 1389.347 539.773 L 1389.347 539.773 Q 1396.849 535.625 1406.121 535.625 L 1406.121 535.625 L 1406.121 535.625 Q 1418.688 535.625 1425.764 543.555 L 1425.764 543.555 L 1425.764 511.713 Z  M 1409.416 587.597 L 1409.416 587.597 Q 1416.614 587.597 1421.371 582.656 L 1421.371 582.656 L 1421.371 582.656 Q 1426.13 577.715 1426.13 569.419 L 1426.13 569.419 L 1426.13 569.419 Q 1426.13 561.123 1421.371 556.182 L 1421.371 556.182 L 1421.371 556.182 Q 1416.614 551.241 1409.416 551.241 L 1409.416 551.241 L 1409.416 551.241 Q 1402.096 551.241 1397.338 556.182 L 1397.338 556.182 L 1397.338 556.182 Q 1392.579 561.123 1392.579 569.419 L 1392.579 569.419 L 1392.579 569.419 Q 1392.579 577.715 1397.338 582.656 L 1397.338 582.656 L 1397.338 582.656 Q 1402.096 587.597 1409.416 587.597 L 1409.416 587.597 Z  M 1526.658 569.663 L 1526.658 569.663 Q 1526.658 570.029 1526.292 574.787 L 1526.292 574.787 L 1476.638 574.787 L 1476.638 574.787 Q 1477.98 580.887 1482.982 584.425 L 1482.982 584.425 L 1482.982 584.425 Q 1487.984 587.963 1495.426 587.963 L 1495.426 587.963 L 1495.426 587.963 Q 1500.549 587.963 1504.515 586.438 L 1504.515 586.438 L 1504.515 586.438 Q 1508.48 584.913 1511.896 581.619 L 1511.896 581.619 L 1522.022 592.599 L 1522.022 592.599 Q 1512.75 603.213 1494.938 603.213 L 1494.938 603.213 L 1494.938 603.213 Q 1483.836 603.213 1475.296 598.882 L 1475.296 598.882 L 1475.296 598.882 Q 1466.755 594.551 1462.12 586.865 L 1462.12 586.865 L 1462.12 586.865 Q 1457.484 579.179 1457.484 569.419 L 1457.484 569.419 L 1457.484 569.419 Q 1457.484 559.781 1462.058 552.034 L 1462.058 552.034 L 1462.058 552.034 Q 1466.634 544.287 1474.625 539.956 L 1474.625 539.956 L 1474.625 539.956 Q 1482.616 535.625 1492.497 535.625 L 1492.497 535.625 L 1492.497 535.625 Q 1502.136 535.625 1509.943 539.773 L 1509.943 539.773 L 1509.943 539.773 Q 1517.752 543.921 1522.204 551.668 L 1522.204 551.668 L 1522.204 551.668 Q 1526.658 559.415 1526.658 569.663 L 1526.658 569.663 Z  M 1492.62 550.021 L 1492.62 550.021 Q 1486.153 550.021 1481.762 553.681 L 1481.762 553.681 L 1481.762 553.681 Q 1477.37 557.341 1476.394 563.685 L 1476.394 563.685 L 1508.724 563.685 L 1508.724 563.685 Q 1507.747 557.463 1503.356 553.742 L 1503.356 553.742 L 1503.356 553.742 Q 1498.964 550.021 1492.62 550.021 L 1492.62 550.021 Z  M 1557.524 545.263 L 1557.524 545.263 Q 1560.94 540.505 1566.734 538.065 L 1566.734 538.065 L 1566.734 538.065 Q 1572.53 535.625 1580.094 535.625 L 1580.094 535.625 L 1580.094 553.193 L 1580.094 553.193 Q 1576.922 552.949 1575.824 552.949 L 1575.824 552.949 L 1575.824 552.949 Q 1567.65 552.949 1563.014 557.524 L 1563.014 557.524 L 1563.014 557.524 Q 1558.378 562.099 1558.378 571.249 L 1558.378 571.249 L 1558.378 602.237 L 1539.346 602.237 L 1539.346 536.601 L 1557.524 536.601 L 1557.524 545.263 Z " fill-rule="evenodd" fill="rgb(255,255,255)"/><clipPath id="_clipPath_5qJsrHzW7ZvbsGElKNNtMaRU34KRaVpt"><path d=" M 556.434 469.901 C 529.431 433.848 486.374 410.5 437.906 410.5 C 356.223 410.5 289.906 476.817 289.906 558.5 L 289.906 558.5 C 289.906 640.183 356.223 706.5 437.906 706.5 C 486.374 706.5 529.431 683.152 556.434 647.099 L 516.39 617.166 C 513.585 620.912 510.51 624.46 507.186 627.78 C 498.246 636.73 487.656 643.87 476.006 648.81 C 463.956 653.9 450.996 656.52 437.906 656.5 C 424.816 656.52 411.856 653.9 399.806 648.81 C 388.156 643.87 377.566 636.73 368.626 627.78 C 359.676 618.84 352.536 608.25 347.596 596.6 C 342.506 584.55 339.886 571.59 339.906 558.5 L 339.906 558.5 C 339.886 545.4 342.506 532.43 347.606 520.37 C 352.536 508.75 359.676 498.16 368.626 489.22 C 377.566 480.27 388.156 473.13 399.806 468.19 C 411.856 463.1 424.816 460.48 437.906 460.5 C 450.996 460.48 463.956 463.1 476.006 468.19 C 487.656 473.13 498.246 480.27 507.186 489.22 C 510.51 492.54 513.585 496.088 516.39 499.834 L 556.434 469.901 Z  M 822.962 469.901 C 795.958 433.848 752.901 410.5 704.434 410.5 C 622.75 410.5 556.434 476.817 556.434 558.5 L 556.434 558.5 C 556.434 640.183 622.75 706.5 704.434 706.5 C 752.901 706.5 795.958 683.152 822.962 647.099 L 782.917 617.166 C 780.113 620.912 777.038 624.46 773.714 627.78 C 764.774 636.73 754.184 643.87 742.534 648.81 C 730.484 653.9 717.524 656.52 704.434 656.5 C 691.344 656.52 678.384 653.9 666.334 648.81 C 654.684 643.87 644.094 636.73 635.154 627.78 C 626.204 618.84 619.064 608.25 614.124 596.6 C 609.034 584.55 606.414 571.59 606.434 558.5 L 606.434 558.5 C 606.414 545.4 609.034 532.43 614.134 520.37 C 619.064 508.75 626.204 498.16 635.154 489.22 C 644.094 480.27 654.684 473.13 666.334 468.19 C 678.384 463.1 691.344 460.48 704.434 460.5 C 717.524 460.48 730.484 463.1 742.534 468.19 C 754.184 473.13 764.774 480.27 773.714 489.22 C 777.038 492.54 780.113 496.088 782.917 499.834 L 822.962 469.901 Z  M 873.958 603.701 L 873.958 603.701 Q 860.903 603.701 850.35 598.028 L 850.35 598.028 L 850.35 598.028 Q 839.797 592.355 833.759 582.29 L 833.759 582.29 L 833.759 582.29 Q 827.72 572.225 827.72 559.537 L 827.72 559.537 L 827.72 559.537 Q 827.72 546.849 833.759 536.784 L 833.759 536.784 L 833.759 536.784 Q 839.797 526.719 850.35 521.046 L 850.35 521.046 L 850.35 521.046 Q 860.903 515.373 874.079 515.373 L 874.079 515.373 L 874.079 515.373 Q 885.182 515.373 894.149 519.277 L 894.149 519.277 L 894.149 519.277 Q 903.116 523.181 909.215 530.501 L 909.215 530.501 L 896.527 542.213 L 896.527 542.213 Q 887.866 532.209 875.056 532.209 L 875.056 532.209 L 875.056 532.209 Q 867.126 532.209 860.903 535.686 L 860.903 535.686 L 860.903 535.686 Q 854.682 539.163 851.204 545.385 L 851.204 545.385 L 851.204 545.385 Q 847.728 551.607 847.728 559.537 L 847.728 559.537 L 847.728 559.537 Q 847.728 567.467 851.204 573.689 L 851.204 573.689 L 851.204 573.689 Q 854.682 579.911 860.903 583.388 L 860.903 583.388 L 860.903 583.388 Q 867.126 586.865 875.056 586.865 L 875.056 586.865 L 875.056 586.865 Q 887.866 586.865 896.527 576.739 L 896.527 576.739 L 909.215 588.451 L 909.215 588.451 Q 903.116 595.893 894.088 599.797 L 894.088 599.797 L 894.088 599.797 Q 885.059 603.701 873.958 603.701 L 873.958 603.701 Z  M 950.086 603.213 L 950.086 603.213 Q 939.715 603.213 931.481 598.882 L 931.481 598.882 L 931.481 598.882 Q 923.245 594.551 918.609 586.865 L 918.609 586.865 L 918.609 586.865 Q 913.974 579.179 913.974 569.419 L 913.974 569.419 L 913.974 569.419 Q 913.974 559.659 918.609 551.973 L 918.609 551.973 L 918.609 551.973 Q 923.245 544.287 931.481 539.956 L 931.481 539.956 L 931.481 539.956 Q 939.715 535.625 950.086 535.625 L 950.086 535.625 L 950.086 535.625 Q 960.455 535.625 968.63 539.956 L 968.63 539.956 L 968.63 539.956 Q 976.804 544.287 981.44 551.973 L 981.44 551.973 L 981.44 551.973 Q 986.076 559.659 986.076 569.419 L 986.076 569.419 L 986.076 569.419 Q 986.076 579.179 981.44 586.865 L 981.44 586.865 L 981.44 586.865 Q 976.804 594.551 968.63 598.882 L 968.63 598.882 L 968.63 598.882 Q 960.455 603.213 950.086 603.213 L 950.086 603.213 Z  M 950.086 587.597 L 950.086 587.597 Q 957.406 587.597 962.103 582.656 L 962.103 582.656 L 962.103 582.656 Q 966.799 577.715 966.799 569.419 L 966.799 569.419 L 966.799 569.419 Q 966.799 561.123 962.103 556.182 L 962.103 556.182 L 962.103 556.182 Q 957.406 551.241 950.086 551.241 L 950.086 551.241 L 950.086 551.241 Q 942.766 551.241 938.007 556.182 L 938.007 556.182 L 938.007 556.182 Q 933.25 561.123 933.25 569.419 L 933.25 569.419 L 933.25 569.419 Q 933.25 577.715 938.007 582.656 L 938.007 582.656 L 938.007 582.656 Q 942.766 587.597 950.086 587.597 L 950.086 587.597 Z  M 1082.822 535.625 L 1082.822 535.625 Q 1095.144 535.625 1102.402 542.884 L 1102.402 542.884 L 1102.402 542.884 Q 1109.661 550.143 1109.661 564.661 L 1109.661 564.661 L 1109.661 602.237 L 1090.63 602.237 L 1090.63 567.589 L 1090.63 567.589 Q 1090.63 559.781 1087.397 555.938 L 1087.397 555.938 L 1087.397 555.938 Q 1084.163 552.095 1078.186 552.095 L 1078.186 552.095 L 1078.186 552.095 Q 1071.475 552.095 1067.572 556.426 L 1067.572 556.426 L 1067.572 556.426 Q 1063.668 560.757 1063.668 569.297 L 1063.668 569.297 L 1063.668 602.237 L 1044.636 602.237 L 1044.636 567.589 L 1044.636 567.589 Q 1044.636 552.095 1032.192 552.095 L 1032.192 552.095 L 1032.192 552.095 Q 1025.604 552.095 1021.7 556.426 L 1021.7 556.426 L 1021.7 556.426 Q 1017.796 560.757 1017.796 569.297 L 1017.796 569.297 L 1017.796 602.237 L 998.764 602.237 L 998.764 536.601 L 1016.942 536.601 L 1016.942 544.165 L 1016.942 544.165 Q 1020.601 540.017 1025.909 537.821 L 1025.909 537.821 L 1025.909 537.821 Q 1031.215 535.625 1037.559 535.625 L 1037.559 535.625 L 1037.559 535.625 Q 1044.514 535.625 1050.126 538.37 L 1050.126 538.37 L 1050.126 538.37 Q 1055.738 541.115 1059.153 546.361 L 1059.153 546.361 L 1059.153 546.361 Q 1063.18 541.237 1069.34 538.431 L 1069.34 538.431 L 1069.34 538.431 Q 1075.502 535.625 1082.822 535.625 L 1082.822 535.625 Z  M 1165.537 535.625 L 1165.537 535.625 Q 1174.688 535.625 1182.191 539.834 L 1182.191 539.834 L 1182.191 539.834 Q 1189.693 544.043 1193.964 551.668 L 1193.964 551.668 L 1193.964 551.668 Q 1198.234 559.293 1198.234 569.419 L 1198.234 569.419 L 1198.234 569.419 Q 1198.234 579.545 1193.964 587.17 L 1193.964 587.17 L 1193.964 587.17 Q 1189.693 594.795 1182.191 599.004 L 1182.191 599.004 L 1182.191 599.004 Q 1174.688 603.213 1165.537 603.213 L 1165.537 603.213 L 1165.537 603.213 Q 1152.972 603.213 1145.774 595.283 L 1145.774 595.283 L 1145.774 625.905 L 1126.742 625.905 L 1126.742 536.601 L 1144.92 536.601 L 1144.92 544.165 L 1144.92 544.165 Q 1151.995 535.625 1165.537 535.625 L 1165.537 535.625 Z  M 1162.244 587.597 L 1162.244 587.597 Q 1169.564 587.597 1174.261 582.656 L 1174.261 582.656 L 1174.261 582.656 Q 1178.958 577.715 1178.958 569.419 L 1178.958 569.419 L 1178.958 569.419 Q 1178.958 561.123 1174.261 556.182 L 1174.261 556.182 L 1174.261 556.182 Q 1169.564 551.241 1162.244 551.241 L 1162.244 551.241 L 1162.244 551.241 Q 1154.923 551.241 1150.226 556.182 L 1150.226 556.182 L 1150.226 556.182 Q 1145.53 561.123 1145.53 569.419 L 1145.53 569.419 L 1145.53 569.419 Q 1145.53 577.715 1150.226 582.656 L 1150.226 582.656 L 1150.226 582.656 Q 1154.923 587.597 1162.244 587.597 L 1162.244 587.597 Z  M 1253.134 603.701 L 1253.134 603.701 Q 1240.079 603.701 1229.526 598.028 L 1229.526 598.028 L 1229.526 598.028 Q 1218.974 592.355 1212.934 582.29 L 1212.934 582.29 L 1212.934 582.29 Q 1206.896 572.225 1206.896 559.537 L 1206.896 559.537 L 1206.896 559.537 Q 1206.896 546.849 1212.934 536.784 L 1212.934 536.784 L 1212.934 536.784 Q 1218.974 526.719 1229.526 521.046 L 1229.526 521.046 L 1229.526 521.046 Q 1240.079 515.373 1253.255 515.373 L 1253.255 515.373 L 1253.255 515.373 Q 1264.358 515.373 1273.325 519.277 L 1273.325 519.277 L 1273.325 519.277 Q 1282.292 523.181 1288.391 530.501 L 1288.391 530.501 L 1275.703 542.213 L 1275.703 542.213 Q 1267.042 532.209 1254.232 532.209 L 1254.232 532.209 L 1254.232 532.209 Q 1246.302 532.209 1240.079 535.686 L 1240.079 535.686 L 1240.079 535.686 Q 1233.858 539.163 1230.38 545.385 L 1230.38 545.385 L 1230.38 545.385 Q 1226.903 551.607 1226.903 559.537 L 1226.903 559.537 L 1226.903 559.537 Q 1226.903 567.467 1230.38 573.689 L 1230.38 573.689 L 1230.38 573.689 Q 1233.858 579.911 1240.079 583.388 L 1240.079 583.388 L 1240.079 583.388 Q 1246.302 586.865 1254.232 586.865 L 1254.232 586.865 L 1254.232 586.865 Q 1267.042 586.865 1275.703 576.739 L 1275.703 576.739 L 1288.391 588.451 L 1288.391 588.451 Q 1282.292 595.893 1273.264 599.797 L 1273.264 599.797 L 1273.264 599.797 Q 1264.235 603.701 1253.134 603.701 L 1253.134 603.701 Z  M 1329.262 603.213 L 1329.262 603.213 Q 1318.891 603.213 1310.657 598.882 L 1310.657 598.882 L 1310.657 598.882 Q 1302.422 594.551 1297.786 586.865 L 1297.786 586.865 L 1297.786 586.865 Q 1293.15 579.179 1293.15 569.419 L 1293.15 569.419 L 1293.15 569.419 Q 1293.15 559.659 1297.786 551.973 L 1297.786 551.973 L 1297.786 551.973 Q 1302.422 544.287 1310.657 539.956 L 1310.657 539.956 L 1310.657 539.956 Q 1318.891 535.625 1329.262 535.625 L 1329.262 535.625 L 1329.262 535.625 Q 1339.631 535.625 1347.806 539.956 L 1347.806 539.956 L 1347.806 539.956 Q 1355.98 544.287 1360.616 551.973 L 1360.616 551.973 L 1360.616 551.973 Q 1365.252 559.659 1365.252 569.419 L 1365.252 569.419 L 1365.252 569.419 Q 1365.252 579.179 1360.616 586.865 L 1360.616 586.865 L 1360.616 586.865 Q 1355.98 594.551 1347.806 598.882 L 1347.806 598.882 L 1347.806 598.882 Q 1339.631 603.213 1329.262 603.213 L 1329.262 603.213 Z  M 1329.262 587.597 L 1329.262 587.597 Q 1336.582 587.597 1341.278 582.656 L 1341.278 582.656 L 1341.278 582.656 Q 1345.975 577.715 1345.975 569.419 L 1345.975 569.419 L 1345.975 569.419 Q 1345.975 561.123 1341.278 556.182 L 1341.278 556.182 L 1341.278 556.182 Q 1336.582 551.241 1329.262 551.241 L 1329.262 551.241 L 1329.262 551.241 Q 1321.942 551.241 1317.183 556.182 L 1317.183 556.182 L 1317.183 556.182 Q 1312.426 561.123 1312.426 569.419 L 1312.426 569.419 L 1312.426 569.419 Q 1312.426 577.715 1317.183 582.656 L 1317.183 582.656 L 1317.183 582.656 Q 1321.942 587.597 1329.262 587.597 L 1329.262 587.597 Z  M 1425.764 511.713 L 1444.796 511.713 L 1444.796 602.237 L 1426.618 602.237 L 1426.618 594.673 L 1426.618 594.673 Q 1419.542 603.213 1406.121 603.213 L 1406.121 603.213 L 1406.121 603.213 Q 1396.849 603.213 1389.347 599.065 L 1389.347 599.065 L 1389.347 599.065 Q 1381.844 594.917 1377.574 587.231 L 1377.574 587.231 L 1377.574 587.231 Q 1373.304 579.545 1373.304 569.419 L 1373.304 569.419 L 1373.304 569.419 Q 1373.304 559.293 1377.574 551.607 L 1377.574 551.607 L 1377.574 551.607 Q 1381.844 543.921 1389.347 539.773 L 1389.347 539.773 L 1389.347 539.773 Q 1396.849 535.625 1406.121 535.625 L 1406.121 535.625 L 1406.121 535.625 Q 1418.688 535.625 1425.764 543.555 L 1425.764 543.555 L 1425.764 511.713 Z  M 1409.416 587.597 L 1409.416 587.597 Q 1416.614 587.597 1421.371 582.656 L 1421.371 582.656 L 1421.371 582.656 Q 1426.13 577.715 1426.13 569.419 L 1426.13 569.419 L 1426.13 569.419 Q 1426.13 561.123 1421.371 556.182 L 1421.371 556.182 L 1421.371 556.182 Q 1416.614 551.241 1409.416 551.241 L 1409.416 551.241 L 1409.416 551.241 Q 1402.096 551.241 1397.338 556.182 L 1397.338 556.182 L 1397.338 556.182 Q 1392.579 561.123 1392.579 569.419 L 1392.579 569.419 L 1392.579 569.419 Q 1392.579 577.715 1397.338 582.656 L 1397.338 582.656 L 1397.338 582.656 Q 1402.096 587.597 1409.416 587.597 L 1409.416 587.597 Z  M 1526.658 569.663 L 1526.658 569.663 Q 1526.658 570.029 1526.292 574.787 L 1526.292 574.787 L 1476.638 574.787 L 1476.638 574.787 Q 1477.98 580.887 1482.982 584.425 L 1482.982 584.425 L 1482.982 584.425 Q 1487.984 587.963 1495.426 587.963 L 1495.426 587.963 L 1495.426 587.963 Q 1500.549 587.963 1504.515 586.438 L 1504.515 586.438 L 1504.515 586.438 Q 1508.48 584.913 1511.896 581.619 L 1511.896 581.619 L 1522.022 592.599 L 1522.022 592.599 Q 1512.75 603.213 1494.938 603.213 L 1494.938 603.213 L 1494.938 603.213 Q 1483.836 603.213 1475.296 598.882 L 1475.296 598.882 L 1475.296 598.882 Q 1466.755 594.551 1462.12 586.865 L 1462.12 586.865 L 1462.12 586.865 Q 1457.484 579.179 1457.484 569.419 L 1457.484 569.419 L 1457.484 569.419 Q 1457.484 559.781 1462.058 552.034 L 1462.058 552.034 L 1462.058 552.034 Q 1466.634 544.287 1474.625 539.956 L 1474.625 539.956 L 1474.625 539.956 Q 1482.616 535.625 1492.497 535.625 L 1492.497 535.625 L 1492.497 535.625 Q 1502.136 535.625 1509.943 539.773 L 1509.943 539.773 L 1509.943 539.773 Q 1517.752 543.921 1522.204 551.668 L 1522.204 551.668 L 1522.204 551.668 Q 1526.658 559.415 1526.658 569.663 L 1526.658 569.663 Z  M 1492.62 550.021 L 1492.62 550.021 Q 1486.153 550.021 1481.762 553.681 L 1481.762 553.681 L 1481.762 553.681 Q 1477.37 557.341 1476.394 563.685 L 1476.394 563.685 L 1508.724 563.685 L 1508.724 563.685 Q 1507.747 557.463 1503.356 553.742 L 1503.356 553.742 L 1503.356 553.742 Q 1498.964 550.021 1492.62 550.021 L 1492.62 550.021 Z  M 1557.524 545.263 L 1557.524 545.263 Q 1560.94 540.505 1566.734 538.065 L 1566.734 538.065 L 1566.734 538.065 Q 1572.53 535.625 1580.094 535.625 L 1580.094 535.625 L 1580.094 553.193 L 1580.094 553.193 Q 1576.922 552.949 1575.824 552.949 L 1575.824 552.949 L 1575.824 552.949 Q 1567.65 552.949 1563.014 557.524 L 1563.014 557.524 L 1563.014 557.524 Q 1558.378 562.099 1558.378 571.249 L 1558.378 571.249 L 1558.378 602.237 L 1539.346 602.237 L 1539.346 536.601 L 1557.524 536.601 L 1557.524 545.263 Z " fill-rule="evenodd" fill="rgb(255,255,255)"/></clipPath><g clip-path="url(#_clipPath_5qJsrHzW7ZvbsGElKNNtMaRU34KRaVpt)"><linearGradient id="_lgradient_3" x1="0" y1="0.5" x2="1" y2="0.5" gradientTransform="matrix(789.124,0,0,304.085,391.386,446.154)" gradientUnits="userSpaceOnUse"><stop offset="2.083333333333333%" stop-opacity="1" style="stop-color:rgb(255,50,50)"/><stop offset="99.16666666666667%" stop-opacity="1" style="stop-color:rgb(238,150,18)"/></linearGradient><rect x="391.386" y="446.154" width="789.124" height="304.085" transform="matrix(0.796,-0.606,0.606,0.796,-201.753,598.266)" fill="url(#_lgradient_3)"/></g></g></g></svg>